<!DOCTYPE svg PUBLIC "-//W3C//DTD SVG 1.1//EN" "http://www.w3.org/Graphics/SVG/1.1/DTD/svg11.dtd">
<!-- Uploaded to: SVG Repo, www.svgrepo.com, Transformed by: SVG Repo Mixer Tools -->
<svg fill="#B2B2B2" width="800px" height="800px" viewBox="0 0 32 32" version="1.1" xmlns="http://www.w3.org/2000/svg">
<g id="SVGRepo_bgCarrier" stroke-width="0"/>
<g id="SVGRepo_tracerCarrier" stroke-linecap="round" stroke-linejoin="round"/>
<g id="SVGRepo_iconCarrier"> <title>remove</title> <path d="M11.188 4.781c6.188 0 11.219 5.031 11.219 11.219s-5.031 11.188-11.219 11.188-11.188-5-11.188-11.188 5-11.219 11.188-11.219zM11.25 17.625l3.563 3.594c0.438 0.438 1.156 0.438 1.594 0 0.406-0.406 0.406-1.125 0-1.563l-3.563-3.594 3.563-3.594c0.406-0.438 0.406-1.156 0-1.563-0.438-0.438-1.156-0.438-1.594 0l-3.563 3.594-3.563-3.594c-0.438-0.438-1.156-0.438-1.594 0-0.406 0.406-0.406 1.125 0 1.563l3.563 3.594-3.563 3.594c-0.406 0.438-0.406 1.156 0 1.563 0.438 0.438 1.156 0.438 1.594 0z"/> </g>
</svg>