<!DOCTYPE svg PUBLIC "-//W3C//DTD SVG 1.1//EN" "http://www.w3.org/Graphics/SVG/1.1/DTD/svg11.dtd">
<!-- Uploaded to: SVG Repo, www.svgrepo.com, Transformed by: SVG Repo Mixer Tools -->
<svg version="1.1" id="Layer_1" xmlns="http://www.w3.org/2000/svg" xmlns:xlink="http://www.w3.org/1999/xlink" viewBox="0 0 496.159 496.159" xml:space="preserve" width="800px" height="800px" fill="#000000">
<g id="SVGRepo_bgCarrier" stroke-width="0"/>
<g id="SVGRepo_tracerCarrier" stroke-linecap="round" stroke-linejoin="round"/>
<g id="SVGRepo_iconCarrier"> <path style="fill:#F9F9F9;" d="M248.083,0.003C111.071,0.003,0,111.063,0,248.085c0,137.001,111.07,248.07,248.083,248.07 c137.006,0,248.076-111.069,248.076-248.07C496.159,111.062,385.089,0.003,248.083,0.003z"/> <g> <rect x="243.03" y="157.629" style="fill:#72C49E;" width="10.938" height="202.92"/> <path style="fill:#72C49E;" d="M268.273,386.501c0-46.279-19.353-45.438-19.353-45.438s-19.353-0.842-19.353,45.438 c0,0,5.049,17.67-78.253,17.67v8.414h195.211v-8.414C263.226,404.171,268.273,386.501,268.273,386.501z"/> <path style="fill:#72C49E;" d="M248.5,123.134c-4.628,0-10.813,9.808-10.813,31.73s22.467,21.922,22.467,0 C260.154,132.941,253.128,123.134,248.5,123.134z"/> </g> <g> <path style="fill:#72C49E;" d="M369.95,191.075c-1.718-0.696-3.685,0.13-4.385,1.853l-45.437,111.909 c-0.7,1.723,0.129,3.686,1.852,4.385c0.415,0.169,0.843,0.248,1.266,0.248c1.328,0,2.588-0.793,3.119-2.1l45.437-111.91 C372.502,193.737,371.673,191.774,369.95,191.075z"/> <path style="fill:#72C49E;" d="M431.964,304.837l-45.437-111.909c-0.7-1.723-2.667-2.549-4.385-1.853 c-1.723,0.699-2.552,2.662-1.853,4.385l45.438,111.91c0.53,1.307,1.79,2.1,3.119,2.1c0.422,0,0.851-0.079,1.266-0.248 C431.834,308.522,432.663,306.559,431.964,304.837z"/> </g> <path style="fill:#72C49E;" d="M319.32,304c0,0,0.842,39.967,57.218,39.967c56.375,0,56.375-39.967,56.375-39.967H319.32z"/> <path style="fill:#72C49E;" d="M386.405,170.553c-0.007,0.033-0.02,0.066-0.027,0.101c-1.458-2.901-4.231-5.341-7.836-6.499 c-6.525-2.098-13.288,0.783-15.104,6.432c-1.816,5.651,2.002,11.932,8.528,14.028c0.158,0.051,0.316,0.086,0.474,0.131 c-3.192,0.753-6.618,0.694-9.967-0.383c-4.94-1.588-13.398-11.229-31.094-16.917c-14.019-4.506-45.149-5.23-85.212-18.106 l-4.249,13.218c32.111,10.32,64.651,10.515,78.967,14.627c26.484,7.608,32.891,14.99,39.777,20.148 c6.885,5.159,23.311,3.092,27.221-9.075C389.844,182.152,389.135,175.831,386.405,170.553z"/> <g> <path style="fill:#72C49E;" d="M176.031,224.837l-45.437-111.909c-0.7-1.723-2.667-2.549-4.385-1.853 c-1.723,0.699-2.552,2.662-1.853,4.385l45.438,111.91c0.531,1.307,1.79,2.1,3.119,2.1c0.422,0,0.851-0.079,1.266-0.248 C175.901,228.522,176.73,226.559,176.031,224.837z"/> <path style="fill:#72C49E;" d="M114.018,111.075c-1.718-0.696-3.685,0.13-4.385,1.853L64.196,224.837 c-0.7,1.723,0.129,3.686,1.852,4.385c0.415,0.169,0.843,0.248,1.266,0.248c1.328,0,2.588-0.793,3.119-2.1l45.437-111.91 C116.569,113.737,115.74,111.774,114.018,111.075z"/> </g> <path style="fill:#72C49E;" d="M63.247,224c0,0,0,39.967,56.375,39.967c56.376,0,57.217-39.967,57.217-39.967H63.247z"/> <path style="fill:#72C49E;" d="M166.358,114.409c-17.696-5.688-30.187-2.778-35.127-4.366c-3.35-1.076-6.168-3.024-8.324-5.496 c0.155,0.055,0.303,0.119,0.461,0.17c6.524,2.097,13.288-0.782,15.104-6.434c1.816-5.648-2.003-11.93-8.528-14.026 c-3.605-1.159-7.281-0.793-10.156,0.717c0.014-0.033,0.022-0.067,0.037-0.099c-5.294,2.7-9.554,7.424-11.516,13.529 c-3.91,12.166,8.236,23.416,16.838,23.234c8.602-0.18,18.109-2.447,44.067,6.8c14.03,4.997,40.591,23.797,72.703,34.118 l4.249-13.218C206.101,136.462,180.377,118.915,166.358,114.409z"/> </g>
</svg>